<svg width="1180" height="280" fill="none" xmlns="http://www.w3.org/2000/svg"><path d="M1035.63 443.696c-9.28 18.207-26.73 31.256-50.416 39.234-23.693 7.978-53.595 10.87-87.699 8.776-68.207-4.188-153.126-28.312-238.575-71.4-85.448-43.088-155.204-96.961-198.915-149.208-21.856-26.125-37.184-51.824-44.717-75.549-7.533-23.722-7.264-45.435 2.016-63.642 9.28-18.206 26.73-31.256 50.42-39.234 23.693-7.978 53.594-10.87 87.699-8.776 68.207 4.188 153.126 28.312 238.574 71.401 85.448 43.088 155.205 96.96 198.915 149.208 21.858 26.124 37.188 51.824 44.718 75.548 7.53 23.722 7.26 45.436-2.02 63.642z" stroke="#fff" stroke-opacity=".15"/><path d="M1175.86 514.408c-13.52 26.521-38.93 45.513-73.39 57.116-34.46 11.605-77.93 15.807-127.502 12.763-99.138-6.087-222.549-41.149-346.721-103.764-124.171-62.614-225.549-140.904-289.081-216.845-31.767-37.972-54.056-75.337-65.014-109.844-10.956-34.504-10.574-66.117 2.944-92.638 13.517-26.52 38.929-45.512 73.387-57.116C384.944-7.524 428.42-11.726 477.99-8.683c99.137 6.087 222.549 41.15 346.72 103.764 124.171 62.615 225.55 140.905 289.08 216.846 31.77 37.971 54.06 75.336 65.02 109.844 10.95 34.504 10.57 66.117-2.95 92.637z" stroke="#fff" stroke-opacity=".15"/><path d="M1346.49 600.45c-18.67 36.638-53.77 62.86-101.33 78.875-47.56 16.017-107.56 21.813-175.95 17.614-136.77-8.398-307.02-56.769-478.31-143.144-171.289-86.374-311.145-194.376-398.797-299.148-43.827-52.386-74.586-103.946-89.71-151.574C87.27 55.449 87.79 11.79 106.465-24.847c18.674-36.638 53.773-62.86 101.333-78.876 47.564-16.016 107.558-21.813 175.946-17.614 136.775 8.398 307.024 56.77 478.314 143.144 171.292 86.375 311.142 194.377 398.802 299.149 43.82 52.386 74.58 103.946 89.71 151.573 15.12 47.625 14.6 91.283-4.08 127.921z" stroke="#fff" stroke-opacity=".15"/></svg>