<svg width="23" height="19" viewBox="0 0 23 19" fill="none" xmlns="http://www.w3.org/2000/svg">
<path d="M19.4709 2.30477C18.0047 1.64352 16.433 1.15477 14.7895 0.876851C14.7748 0.874041 14.7597 0.875852 14.7461 0.882033C14.7325 0.888214 14.7212 0.898459 14.7138 0.911351C14.5125 1.26498 14.2883 1.72593 14.1311 2.0901C12.388 1.82966 10.6158 1.82966 8.87271 2.0901C8.69766 1.68651 8.50025 1.29298 8.28142 0.911351C8.274 0.898301 8.26278 0.887823 8.24925 0.881317C8.23572 0.87481 8.22054 0.872583 8.20571 0.874934C6.56313 1.15285 4.99146 1.6416 3.52425 2.30381C3.51163 2.3091 3.50093 2.31813 3.49359 2.32968C0.511252 6.71406 -0.306206 10.9901 0.0953356 15.2126C0.0964529 15.2229 0.099663 15.2329 0.10477 15.242C0.109878 15.251 0.116775 15.259 0.125044 15.2653C1.86575 16.5326 3.80728 17.498 5.86834 18.1211C5.8827 18.1255 5.89807 18.1255 5.91243 18.1211C5.92679 18.1166 5.93948 18.1079 5.94883 18.0962C6.39235 17.503 6.78536 16.8738 7.12375 16.215C7.12845 16.206 7.13116 16.1961 7.13169 16.1859C7.13222 16.1758 7.13057 16.1656 7.12684 16.1562C7.12312 16.1467 7.11741 16.1382 7.11009 16.1311C7.10278 16.1241 7.09404 16.1187 7.08446 16.1153C6.46538 15.8822 5.86554 15.6008 5.29046 15.2739C5.28013 15.268 5.27142 15.2596 5.26512 15.2495C5.25882 15.2394 5.25512 15.2279 5.25436 15.2161C5.2536 15.2042 5.2558 15.1923 5.26077 15.1815C5.26573 15.1707 5.2733 15.1613 5.28279 15.1541C5.40354 15.065 5.52429 14.972 5.63929 14.8791C5.64964 14.8707 5.66211 14.8654 5.67531 14.8637C5.68851 14.862 5.70192 14.864 5.71404 14.8695C9.47742 16.56 13.5532 16.56 17.2725 14.8695C17.2847 14.8637 17.2982 14.8614 17.3116 14.8629C17.325 14.8645 17.3377 14.8697 17.3482 14.8781C17.4632 14.972 17.583 15.065 17.7047 15.1541C17.7143 15.1611 17.722 15.1704 17.7271 15.1811C17.7322 15.1918 17.7346 15.2037 17.734 15.2155C17.7335 15.2274 17.73 15.239 17.7239 15.2491C17.7177 15.2593 17.7092 15.2678 17.699 15.2739C17.1259 15.6036 16.5298 15.8824 15.904 16.1144C15.8944 16.1178 15.8856 16.1233 15.8783 16.1305C15.871 16.1376 15.8653 16.1462 15.8616 16.1558C15.8579 16.1653 15.8562 16.1755 15.8568 16.1857C15.8573 16.1959 15.86 16.2059 15.8647 16.215C16.2097 16.8734 16.6045 17.5001 17.0387 18.0952C17.0477 18.1074 17.0603 18.1166 17.0747 18.1214C17.0891 18.1262 17.1046 18.1264 17.1192 18.1221C19.1838 17.5007 21.1285 16.5348 22.8711 15.2653C22.8796 15.2593 22.8867 15.2516 22.892 15.2427C22.8973 15.2338 22.9006 15.2238 22.9018 15.2135C23.3809 10.3318 22.0987 6.09018 19.5006 2.3316C19.4943 2.31939 19.4837 2.30986 19.4709 2.30477ZM7.68629 12.6413C6.55354 12.6413 5.61917 11.6169 5.61917 10.3605C5.61917 9.10318 6.53534 8.07968 7.68629 8.07968C8.84588 8.07968 9.77163 9.11181 9.75342 10.3605C9.75342 11.6179 8.83725 12.6413 7.68629 12.6413ZM15.329 12.6413C14.1953 12.6413 13.2619 11.6169 13.2619 10.3605C13.2619 9.10318 14.1771 8.07968 15.329 8.07968C16.4886 8.07968 17.4143 9.11181 17.3961 10.3605C17.3961 11.6179 16.4895 12.6413 15.329 12.6413Z" fill="#7BF5FB"/>
</svg>
