<svg width="24" height="24" viewBox="0 0 24 24" fill="none" xmlns="http://www.w3.org/2000/svg">
<g clip-path="url(#clip0_3326_4966)">
<path d="M20.9435 10.6874L5.14661 1.84673C4.8834 1.69324 4.58032 1.62194 4.27628 1.64198C3.97224 1.66203 3.68114 1.77251 3.44036 1.95923C3.19446 2.15324 3.01593 2.41979 2.9301 2.72102C2.84427 3.02226 2.85552 3.34287 2.96224 3.63736L5.59661 10.9967C5.62326 11.0701 5.67163 11.1336 5.73527 11.1788C5.7989 11.2241 5.8748 11.2488 5.95286 11.2499H12.7216C12.9162 11.2468 13.1048 11.3176 13.2492 11.4481C13.3936 11.5786 13.4831 11.759 13.4997 11.953C13.5062 12.0553 13.4915 12.1579 13.4567 12.2544C13.4219 12.3509 13.3677 12.4392 13.2974 12.5139C13.2271 12.5886 13.1422 12.648 13.048 12.6886C12.9538 12.7292 12.8523 12.7501 12.7497 12.7499H5.95286C5.8748 12.7509 5.7989 12.7756 5.73527 12.8209C5.67163 12.8661 5.62326 12.9296 5.59661 13.003L2.96224 20.3624C2.88319 20.5891 2.85938 20.8314 2.89276 21.0691C2.92615 21.3069 3.01578 21.5333 3.1542 21.7295C3.29263 21.9257 3.47586 22.086 3.68868 22.1971C3.9015 22.3083 4.13777 22.3671 4.37786 22.3686C4.63336 22.3675 4.88459 22.303 5.10911 22.1811L20.9435 13.3124C21.1755 13.1806 21.3684 12.9898 21.5026 12.7592C21.6368 12.5286 21.7075 12.2666 21.7075 11.9999C21.7075 11.7331 21.6368 11.4711 21.5026 11.2405C21.3684 11.01 21.1755 10.8191 20.9435 10.6874V10.6874Z" fill="white"/>
</g>
<defs>
<clipPath id="clip0_3326_4966">
<rect width="24" height="24" fill="white"/>
</clipPath>
</defs>
</svg>
