<svg width="21" height="16" viewBox="0 0 21 16" fill="none" xmlns="http://www.w3.org/2000/svg">
<path d="M18.4577 3.99015C19.2943 3.42154 19.998 2.71179 20.5714 1.89456V1.89374C19.806 2.21456 18.9917 2.4279 18.1414 2.53128C19.0157 2.03159 19.6834 1.24636 19.9971 0.300308C19.182 0.765538 18.282 1.09374 17.3229 1.27754C16.5489 0.488205 15.4457 0 14.2423 0C11.9074 0 10.0277 1.81415 10.0277 4.03774C10.0277 4.35774 10.056 4.66544 10.1254 4.95836C6.61971 4.79426 3.51686 3.18605 1.43229 0.735179C1.06886 1.3399 0.854571 2.03159 0.854571 2.77579C0.854571 4.17395 1.60629 5.41292 2.72829 6.13087C2.05029 6.11856 1.386 5.92985 0.822857 5.63364V5.67795C0.822857 7.63979 2.28429 9.26933 4.20171 9.64513C3.858 9.73538 3.48429 9.77805 3.096 9.77805C2.826 9.77805 2.55343 9.76328 2.298 9.70913C2.844 11.3075 4.39543 12.4833 6.23829 12.5218C4.80343 13.5959 2.98114 14.2433 1.00886 14.2433C0.663429 14.2433 0.331714 14.2285 0 14.1883C1.86857 15.3411 4.08171 16 6.46971 16C13.9123 16 18.7629 10.0562 18.4577 3.99015Z" fill="#7BF5FB"/>
</svg>
